With: Lauren Holly, Lacey Chabert and Billy Zane

Deze misdaadthriller speelt zich af in de gevaarlijke achterbuurten van Los Angeles. De film bevat drie afzonderlijke verhaallijnen, waarin de levens van verschillende karakters centraal staan. Daphne is een ex-verslaafde in geldnood. Ze besluit daarom Casey, de knappe woordvoerder van een rijke en machtige sekte, te ontvoeren. Maar daar krijgt ze spijt van... Psychologieleraar Bill Plummer is geobsedeerd door het 'lustprincipe' van Freud. Zijn leven neemt een interessante wending als hij erachter komt dat zijn vrouw vreemdgaat met een andere vrouw. Daarnaast volgen we een wrede lesbische vrouw, Marcy, die alles op alles zet om de kidnapper van Casey te vinden. Het verhaal beweegt zich heen en weer tussen deze drie verschillende werelden, waarvan de karakters, zonder het te weten, sterk met elkaar zijn verbonden. In een spannende climax vol actie komen ze uiteindelijk bij elkaar.

"The Pleasure Drivers" lays out three separate interconnected stories involving an adulterous therapist... 

------------------ Dutch Friends ------------------
You can find my Friends at: http://www.Film-Test.nl 
------ They got my dutch subs ----- and more ------

General:

Complete name                    : The Pleasure Drivers\The Pleasure Drivers.avi
Format                           : AVI
Format/Info                      : Audio Video Interleave
File size                        : 1.50 GiB
Duration                         : 1h 34mn
Overall bit rate                 : 2 277 Kbps

Video:

Format                           : MPEG-4 Visual
Format profile                   : Simple@L3
Format settings, BVOP            : No
Format settings, QPel            : No
Format settings, GMC             : No warppoints
Format settings, Matrix          : Default (H.263)
Codec ID                         : XVID
Codec ID/Hint                    : XviD
Duration                         : 1h 34mn
Bit rate                         : 1 818 Kbps
Width                            : 720 pixels
Height                           : 304 pixels
Display aspect ratio             : 2.35:1
Frame rate                       : 25.000 fps
Color space                      : YUV
Chroma subsampling               : 4:2:0
Bit depth                        : 8 bits
Scan type                        : Progressive
Compression mode                 : Lossy
Bits/(Pixel*Frame)               : 0.332
Stream size                      : 1.20 GiB (80%)
Writing library                  : XviD 1.1.2 (UTC 2006-11-01)

Audio:

Format                           : AC-3
Format/Info                      : Audio Coding 3
Mode extension                   : CM (complete main)
Codec ID                         : 2000
Duration                         : 1h 34mn
Bit rate mode                    : Constant
Bit rate                         : 448 Kbps
Channel(s)                       : 6 channels
Channel positions                : Front: L C R, Side: L R, LFE
Sampling rate                    : 48.0 KHz
Bit depth                        : 16 bits
Compression mode                 : Lossy
Stream size                      : 303 MiB (20%)
Alignment                        : Aligned on interleaves
Interleave, duration             : 32 ms (0.80 video frame)
